{"title":"Sult (1966)","uid":11358505,"size":1564520640,"categoryP":"video","categoryS":"movies","magnet":"?xt=urn:btih:d8826d04b2f32686ce81da7922363592109ac9e0&amp;dn=Sult+%281966%29&amp;tr=udp%3A%2F%2Ftracker.openbittorrent.com%3A80&amp;tr=udp%3A%2F%2Fopen.demonii.com%3A1337&amp;tr=udp%3A%2F%2Ftracker.coppersurfer.tk%3A6969&amp;tr=udp%3A%2F%2Fexodus.desync.com%3A6969","seeders":1,"leechers":1,"uploader":"cavallone","files":1,"time":1414979768,"description":"Plot: In 1890, Pontus, the starving writer, wanders the streets of Christiania, in search of love and a chance to get his work published. All he meets is defeat and suffering while his sense of reality is withering. One moment his is delighted and the next he curses everybody. All the time he manages to maintain human dignity and pride. \n\nRip specs:\n\nGeneral\nComplete name : Sult.1966.NTSC.DVD.x264-Tree.mkv\nFormat : Matroska\nFormat version : Version 1\nFile size : 1.46 GiB\nDuration : 1h 51mn\nOverall bit rate : 1 866 Kbps\nEncoded date : UTC 2009-03-22 14:09:46\nWriting application : mkvmerge v2.5.3 ('Boogie') built on Mar 7 2009 15:00:41\nWriting library : libebml v0.7.7 + libmatroska v0.8.1\n\nVideo\nID : 1\nFormat : AVC\nFormat/Info : Advanced Video Codec\nFormat profile : &lt;a class=&quot;__cf_email__&quot; href=&quot;/cdn-cgi/l/email-protection&quot; data-cfemail=&quot;5c14353b341c106f726d&quot;&gt;[email&amp;#160;protected]&lt;/a&gt;&lt;script cf-hash='f9e31' type=&quot;text/javascript&quot;&gt;\n/* &lt;![CDATA[ */!function(){try{var t=&quot;currentScript&quot;in document?document.currentScript:function(){for(var t=document.getElementsByTagName(&quot;script&quot;),e=t.length;e--;)if(t[e].getAttribute(&quot;cf-hash&quot;))return t[e]}();if(t&amp;&amp;t.previousSibling){var e,r,n,i,c=t.previousSibling,a=c.getAttribute(&quot;data-cfemail&quot;);if(a){for(e=&quot;&quot;,r=parseInt(a.substr(0,2),16),n=2;a.length-n;n+=2)i=parseInt(a.substr(n,2),16)^r,e+=String.fromCharCode(i);e=document.createTextNode(e),c.parentNode.replaceChild(e,c)}}}catch(u){}}();/* ]]&gt; */&lt;/script&gt;\nFormat settings, CABAC : Yes\nFormat settings, ReFrames : 12 frames\nCodec ID : V_MPEG4/ISO/AVC\nDuration : 1h 51mn\nBit rate : 1 671 Kbps\nWidth : 672 pixels\nHeight : 480 pixels\nDisplay aspect ratio : 1.697\nOriginal display aspect ratio : 1.400\nFrame rate mode : Constant\nFrame rate : 23.976 fps\nColor space : YUV\nChroma subsampling : 4:2:0\nBit depth : 8 bits\nScan type : Progressive\nBits/(Pixel*Frame) : 0.216\nStream size : 1.28 GiB (88%)\nTitle : Vidoe Track\nWriting library : x264 core 67 r1128M 682b54d\nEncoding settings : cabac=1 / ref=12 / deblock=1:-3:-3 / analyse=0x3:0x133 / me=tesa / subme=9 / psy_rd=1.0:0.2 / mixed_ref=1 / me_range=64 / chroma_me=1 / trellis=2 / 8x8dct=1 / cqm=0 / deadzone=21,11 / chroma_qp_offset=-3 / threads=6 / nr=0 / decimate=1 / mbaff=0 / bframes=8 / b_pyramid=1 / b_adapt=2 / b_bias=0 / direct=3 / wpredb=1 / keyint=250 / keyint_min=25 / scenecut=40 / rc=2pass / bitrate=1671 / ratetol=4.0 / qcomp=0.60 / qpmin=10 / qpmax=51 / qpstep=4 / cplxblur=20.0 / qblur=0.5 / ip_ratio=1.40 / pb_ratio=1.30 / aq=1:1.00\nLanguage : Danish\nDefault : Yes\nForced : No\n\nAudio\nID : 2\nFormat : AC-3\nFormat/Info : Audio Coding 3\nMode extension : CM (complete main)\nFormat settings, Endianness : Big\nCodec ID : A_AC3\nDuration : 1h 51mn\nBit rate mode : Constant\nBit rate : 192 Kbps\nChannel(s) : 2 channels\nChannel positions : Front: L R\nSampling rate : 48.0 KHz\nBit depth : 16 bits\nCompression mode : Lossy\nStream size : 154 MiB (10%)\nLanguage : Danish\nDefault : Yes\nForced : No\n\nText #1\nID : 3\nFormat : UTF-8\nCodec ID : S_TEXT/UTF8\nCodec ID/Info : UTF-8 Plain Text\nLanguage : English\nDefault : Yes\nForced : No\n\nText #2\nID : 4\nFormat : UTF-8\nCodec ID : S_TEXT/UTF8\nCodec ID/Info : UTF-8 Plain Text\nLanguage : French\nDefault : No\nForced : No","torrent":{"xt":"urn:btih:d8826d04b2f32686ce81da7922363592109ac9e0","amp;dn":"Sult+%281966%29","amp;tr":["udp%3A%2F%2Ftracker.openbittorrent.com%3A80","udp%3A%2F%2Fopen.demonii.com%3A1337","udp%3A%2F%2Ftracker.coppersurfer.tk%3A6969","udp%3A%2F%2Fexodus.desync.com%3A6969"],"infoHash":"d8826d04b2f32686ce81da7922363592109ac9e0","infoHashBuffer":{"type":"Buffer","data":[216,130,109,4,178,243,38,134,206,129,218,121,34,54,53,146,16,154,201,224]},"announce":[],"urlList":[]}}